# xmcd CD database file
#
# Track frame offsets:
#	150
#	11673
#	22933
#	32888
#	40414
#	51308
#	60213
#	70942
#	82030
#	92502
#	103104
#	112775
#
# Disc length: 1660 seconds
#
# Revision: 0
# Processed by: cddbd v1.5.2PL0 Copyright (c) Steve Scherf et al.
# Submitted via: CDex 1.51
#
DISCID=90067a0c
DTITLE=Jim Reeves - Songs To Warm The Heart
DYEAR=1965
DGENRE=Country
TTITLE0=Someday You'll Want Me To Want You
TTITLE1=Just Call Me Lonesome
TTITLE2=A Fool Such As I
TTITLE3=Till The End Of The World
TTITLE4=How's The World Treating You
TTITLE5=Throw Another Log On The Fire
TTITLE6=Making Believe
TTITLE7=Satan Can't Hold Me
TTITLE8=Am I Losing You
TTITLE9=Scarlet Ribbons
TTITLE10=Dear Hearts And Gentle People
TTITLE11=May The Good Lord Bless And Keep You
EXTD=YEAR: 1965
EXTT0=
EXTT1=
EXTT2=
EXTT3=
EXTT4=
EXTT5=
EXTT6=
EXTT7=
EXTT8=
EXTT9=
EXTT10=
EXTT11=
PLAYORDER=
